<svg fill="none" xmlns="http://www.w3.org/2000/svg" viewBox="44.47 21 125.53 200">
    <path d="M164.336 134.867C168.112 142.289 170 150.167 170 158.5C170 164.229 169.251 169.763 167.754 175.102C166.257 180.44 164.173 185.421 161.504 190.043C158.835 194.665 155.579 198.865 151.738 202.641C147.897 206.417 143.665 209.672 139.043 212.406C134.421 215.141 129.44 217.257 124.102 218.754C118.763 220.251 113.229 221 107.5 221C101.771 221 96.237 220.251 90.8984 218.754C85.5599 217.257 80.5794 215.173 75.957 212.504C71.3346 209.835 67.1354 206.579 63.3594 202.738C59.5833 198.897 56.3281 194.665 53.5938 190.043C50.8594 185.421 48.7435 180.44 47.2461 175.102C45.7487 169.763 45 164.229 45 158.5C45 150.232 46.8229 142.387 50.4688 134.965L107.012 21L164.336 134.867Z"
          fill="#3E92DF"></path>
    <path d="M155.775 185.567C154.105 192.326 140.032 203.713 136.982 202.959C133.932 202.206 143.06 189.597 144.731 182.837C146.401 176.078 150.228 171.21 153.278 171.964C156.327 172.717 157.446 178.808 155.775 185.567Z"
          fill="white"></path>
    <path d="M52 133.5C62 189.5 78.1667 212.167 85 216.5C64.8333 207.833 30 179.1 52 133.5Z" fill="#2B6EAB"
          stroke="#2B6EAB"></path>
</svg>