<svg width="125" height="200" viewBox="0 0 125 200" fill="none" xmlns="http://www.w3.org/2000/svg">
<path d="M119.336 113.867C123.112 121.289 125 129.167 125 137.5C125 143.229 124.251 148.763 122.754 154.102C121.257 159.44 119.173 164.421 116.504 169.043C113.835 173.665 110.579 177.865 106.738 181.641C102.897 185.417 98.6654 188.672 94.043 191.406C89.4206 194.141 84.4401 196.257 79.1016 197.754C73.763 199.251 68.2292 200 62.5 200C56.7708 200 51.237 199.251 45.8984 197.754C40.5599 196.257 35.5794 194.173 30.957 191.504C26.3346 188.835 22.1354 185.579 18.3594 181.738C14.5833 177.897 11.3281 173.665 8.59375 169.043C5.85938 164.421 3.74349 159.44 2.24609 154.102C0.748698 148.763 0 143.229 0 137.5C0 129.232 1.82292 121.387 5.46875 113.965L62.0117 0L119.336 113.867Z" fill="#3E92DF"/>
</svg>